<svg width="146" height="42" viewBox="0 0 146 42" fill="none" xmlns="http://www.w3.org/2000/svg">
<path d="M3.5957 25.6426C2.59766 25.6426 1.99609 25.0273 1.99609 24.125C1.99609 23.2363 2.59766 22.6211 3.5957 22.6211H14.082C15.0938 22.6211 15.6816 23.2363 15.6816 24.125C15.6816 25.0273 15.0938 25.6426 14.082 25.6426H3.5957ZM26.5234 34.1602C26.0996 34.1602 25.7852 33.873 25.7852 33.4082V31.7129C22.5586 31.5215 20.2207 29.9766 19.5645 27.8164C19.4688 27.543 19.4277 27.2832 19.4277 27.0371C19.4277 26.1758 20.0156 25.5879 20.9727 25.5879C21.7109 25.5879 22.2305 25.957 22.5586 26.7227C23.0098 27.9121 23.9395 28.7871 25.7852 28.9785V23.4414L25.0332 23.2637C21.5195 22.457 19.6055 20.8711 19.6055 18.0137C19.6055 14.8555 22.1895 12.791 25.7852 12.5586V10.8359C25.7852 10.3711 26.0996 10.084 26.5234 10.084C26.9473 10.084 27.2617 10.3711 27.2617 10.8359V12.5586C30.3105 12.791 32.5391 14.3496 33.1953 16.5371C33.2637 16.7969 33.3047 17.043 33.3047 17.3027C33.3047 18.1094 32.7031 18.6562 31.8008 18.6562C31.0352 18.6562 30.5293 18.2598 30.1738 17.5352C29.6133 16.25 28.6836 15.498 27.2617 15.3066V20.625L28.0957 20.8164C31.7461 21.6641 33.7012 23.1406 33.7012 26.0938C33.7012 29.498 30.9258 31.4668 27.2617 31.7129V33.4082C27.2617 33.873 26.9473 34.1602 26.5234 34.1602ZM22.9004 17.7402C22.9004 18.9297 23.7207 19.75 25.7852 20.2832V15.293C23.8984 15.5117 22.9004 16.5371 22.9004 17.7402ZM30.4199 26.4355C30.4199 25.1094 29.6543 24.3711 27.2617 23.7832V28.9785C29.4355 28.8145 30.4199 27.8027 30.4199 26.4355ZM38.4727 32C37.3789 32 36.8047 31.3984 36.8047 30.5098C36.8047 29.8262 37.0371 29.416 37.7891 28.7051L43.8184 22.7305C46.334 20.2422 46.9629 19.2441 46.9629 17.7402C46.9629 15.9766 45.6094 14.7051 43.709 14.7051C41.9316 14.7051 40.6875 15.6074 39.9902 17.3848C39.6348 18.0957 39.2246 18.4648 38.418 18.4648C37.4609 18.4648 36.8867 17.877 36.8867 17.002C36.8867 16.7422 36.9277 16.4961 36.9961 16.2637C37.5293 14.1309 39.8945 11.875 43.7363 11.875C47.6875 11.875 50.4082 14.2129 50.4082 17.5215C50.4082 19.832 49.3008 21.3906 46.0332 24.5898L41.5078 29.0469V29.1152H49.3828C50.3125 29.1152 50.8867 29.6895 50.8867 30.5645C50.8867 31.4258 50.3125 32 49.3828 32H38.4727ZM55.6855 28.5273C56.6016 28.5273 57.2168 29.0605 57.2168 29.9219C57.2168 30.1816 57.1895 30.4277 57.1074 30.7148L55.9453 35.3496C55.7539 36.1562 55.3438 36.5254 54.5371 36.5254C53.7305 36.5254 53.2246 36.0059 53.2656 35.2676C53.2656 35.1309 53.2793 35.0352 53.293 34.9805L54.0859 29.9492C54.2363 28.9512 54.7969 28.5273 55.6855 28.5273ZM66.1035 32.2734C65.0781 32.2734 64.3672 31.5625 64.3672 30.4961V15.6895H64.2988L61.1133 17.9043C60.7715 18.1504 60.498 18.2461 60.1152 18.2461C59.377 18.2461 58.8438 17.7129 58.8438 16.9336C58.8438 16.3867 59.0625 15.9766 59.6504 15.5664L63.6836 12.7363C64.5586 12.1211 65.1055 11.998 65.8438 11.998C67.0879 11.998 67.8398 12.75 67.8398 13.9668V30.4961C67.8398 31.5625 67.1289 32.2734 66.1035 32.2734ZM79.9531 32.3965C75.0859 32.3965 72.1875 28.4453 72.1875 22.1152C72.1875 15.8125 75.1133 11.875 79.9531 11.875C84.7793 11.875 87.6914 15.7852 87.6914 22.1016C87.6914 28.418 84.8066 32.3965 79.9531 32.3965ZM79.9531 29.5117C82.6191 29.5117 84.1367 26.791 84.1367 22.1152C84.1367 17.4941 82.5918 14.7598 79.9531 14.7598C77.3008 14.7598 75.7422 17.5078 75.7422 22.1016C75.7422 26.7773 77.2734 29.5117 79.9531 29.5117Z" fill="#F0B052"/>
<g filter="url(#filter0_f_415_1362)">
<path d="M108.773 32.1504C107.666 32.1504 106.805 31.2891 106.805 30.1816C106.805 29.0879 107.666 28.2129 108.773 28.2129C109.867 28.2129 110.729 29.0879 110.729 30.1816C110.729 31.2891 109.867 32.1504 108.773 32.1504Z" fill="#F0B052"/>
</g>
<g opacity="0.4" filter="url(#filter1_f_415_1362)">
<path d="M97.1621 35.2734C96.1367 35.2734 95.4258 34.5625 95.4258 33.4961V18.6895H95.3574L92.1719 20.9043C91.8301 21.1504 91.5566 21.2461 91.1738 21.2461C90.4355 21.2461 89.9023 20.7129 89.9023 19.9336C89.9023 19.3867 90.1211 18.9766 90.709 18.5664L94.7422 15.7363C95.6172 15.1211 96.1641 14.998 96.9023 14.998C98.1465 14.998 98.8984 15.75 98.8984 16.9668V33.4961C98.8984 34.5625 98.1875 35.2734 97.1621 35.2734Z" fill="#F0B052"/>
</g>
<g filter="url(#filter2_f_415_1362)">
<path d="M119.173 32.2403C118.272 32.2403 117.647 31.6155 117.647 30.6784V17.6665H117.587L114.787 19.6129C114.487 19.8291 114.247 19.9132 113.91 19.9132C113.262 19.9132 112.793 19.4447 112.793 18.7598C112.793 18.2792 112.985 17.9188 113.502 17.5584L117.046 15.0713C117.815 14.5307 118.296 14.4225 118.944 14.4225C120.038 14.4225 120.699 15.0833 120.699 16.1526V30.6784C120.699 31.6155 120.074 32.2403 119.173 32.2403Z" fill="#F0B052"/>
</g>
<g filter="url(#filter3_f_415_1362)">
<path d="M133.424 32.3484C130.757 32.3484 128.45 31.0749 127.597 29.1886C127.428 28.8161 127.32 28.4557 127.32 28.0111C127.32 27.2061 127.837 26.7015 128.654 26.7015C129.303 26.7015 129.699 26.9538 130.024 27.5906C130.612 28.9963 131.766 29.8253 133.436 29.8253C135.49 29.8253 136.944 28.3716 136.944 26.3171C136.944 24.3226 135.49 22.9049 133.448 22.9049C132.354 22.9049 131.405 23.3494 130.744 23.9982C130.024 24.7191 129.723 24.8753 129.014 24.8753C128.017 24.8753 127.525 24.1664 127.549 23.3254C127.549 23.2533 127.549 23.2053 127.561 23.1332L128.113 16.5852C128.221 15.2155 128.918 14.6628 130.276 14.6628H137.749C138.542 14.6628 139.059 15.1674 139.059 15.9244C139.059 16.6933 138.542 17.1979 137.749 17.1979H130.744L130.288 22.3282H130.348C131.081 21.2469 132.511 20.574 134.253 20.574C137.569 20.574 139.936 22.9169 139.936 26.233C139.936 29.8614 137.268 32.3484 133.424 32.3484Z" fill="#F0B052"/>
</g>
<g filter="url(#filter4_f_415_1362)">
<path d="M92.0898 26C90.9961 26 90.4219 25.3984 90.4219 24.5098C90.4219 23.8262 90.6543 23.416 91.4062 22.7051L97.4355 16.7305C99.9512 14.2422 100.58 13.2441 100.58 11.7402C100.58 9.97656 99.2266 8.70508 97.3262 8.70508C95.5488 8.70508 94.3047 9.60742 93.6074 11.3848C93.252 12.0957 92.8418 12.4648 92.0352 12.4648C91.0781 12.4648 90.5039 11.877 90.5039 11.002C90.5039 10.7422 90.5449 10.4961 90.6133 10.2637C91.1465 8.13086 93.5117 5.875 97.3535 5.875C101.305 5.875 104.025 8.21289 104.025 11.5215C104.025 13.832 102.918 15.3906 99.6504 18.5898L95.125 23.0469V23.1152H103C103.93 23.1152 104.504 23.6895 104.504 24.5645C104.504 25.4258 103.93 26 103 26H92.0898Z" fill="#F0B052"/>
</g>
<defs>
<filter id="filter0_f_415_1362" x="101.805" y="23.2129" width="13.9219" height="13.9375" filterUnits="userSpaceOnUse" color-interpolation-filters="sRGB">
<feFlood flood-opacity="0" result="BackgroundImageFix"/>
<feBlend mode="normal" in="SourceGraphic" in2="BackgroundImageFix" result="shape"/>
<feGaussianBlur stdDeviation="1.5" result="effect1_foregroundBlur_415_1362"/>
</filter>
<filter id="filter1_f_415_1362" x="85.9023" y="10.998" width="16.9961" height="28.2754" filterUnits="userSpaceOnUse" color-interpolation-filters="sRGB">
<feFlood flood-opacity="0" result="BackgroundImageFix"/>
<feBlend mode="normal" in="SourceGraphic" in2="BackgroundImageFix" result="shape"/>
<feGaussianBlur stdDeviation="2" result="effect1_foregroundBlur_415_1362"/>
</filter>
<filter id="filter2_f_415_1362" x="107.443" y="9.07188" width="18.6062" height="28.5184" filterUnits="userSpaceOnUse" color-interpolation-filters="sRGB">
<feFlood flood-opacity="0" result="BackgroundImageFix"/>
<feBlend mode="normal" in="SourceGraphic" in2="BackgroundImageFix" result="shape"/>
<feGaussianBlur stdDeviation="2.675" result="effect1_foregroundBlur_415_1362"/>
</filter>
<filter id="filter3_f_415_1362" x="121.97" y="9.31211" width="23.3172" height="28.3855" filterUnits="userSpaceOnUse" color-interpolation-filters="sRGB">
<feFlood flood-opacity="0" result="BackgroundImageFix"/>
<feBlend mode="normal" in="SourceGraphic" in2="BackgroundImageFix" result="shape"/>
<feGaussianBlur stdDeviation="2.675" result="effect1_foregroundBlur_415_1362"/>
</filter>
<filter id="filter4_f_415_1362" x="85.4219" y="0.875" width="24.082" height="30.125" filterUnits="userSpaceOnUse" color-interpolation-filters="sRGB">
<feFlood flood-opacity="0" result="BackgroundImageFix"/>
<feBlend mode="normal" in="SourceGraphic" in2="BackgroundImageFix" result="shape"/>
<feGaussianBlur stdDeviation="1.5" result="effect1_foregroundBlur_415_1362"/>
</filter>
</defs>
</svg>
